<?xml version="1.0" encoding="UTF-8" standalone="no"?>
<!-- Created with Inkscape (http://www.inkscape.org/) -->

<svg
   width="550.00006mm"
   height="756mm"
   viewBox="0 0 550.00006 755.99999"
   version="1.1"
   id="svg2155"
   inkscape:version="1.2.2 (1:1.2.2+202305151915+b0a8486541)"
   sodipodi:docname="favicon-bk.svg"
   xmlns:inkscape="http://www.inkscape.org/namespaces/inkscape"
   xmlns:sodipodi="http://sodipodi.sourceforge.net/DTD/sodipodi-0.dtd"
   xmlns="http://www.w3.org/2000/svg"
   xmlns:svg="http://www.w3.org/2000/svg">
  <sodipodi:namedview
     id="namedview2157"
     pagecolor="#ffffff"
     bordercolor="#666666"
     borderopacity="1.0"
     inkscape:showpageshadow="2"
     inkscape:pageopacity="0.0"
     inkscape:pagecheckerboard="0"
     inkscape:deskcolor="#d1d1d1"
     inkscape:document-units="mm"
     showgrid="false"
     inkscape:zoom="0.17772517"
     inkscape:cx="-329.15991"
     inkscape:cy="987.47972"
     inkscape:window-width="1920"
     inkscape:window-height="964"
     inkscape:window-x="0"
     inkscape:window-y="27"
     inkscape:window-maximized="1"
     inkscape:current-layer="layer1" />
  <defs
     id="defs2152" />
  <g
     inkscape:label="Layer 1"
     inkscape:groupmode="layer"
     id="layer1"
     transform="translate(-30.59578,-49.793937)">
    <path
       class="st3"
       d="M 486.18914,377.82106 C 416.6076,659.46064 40.536,803.59382 40.536,803.59382 l -9.94022,1.65681 h 3.313615 c 0,0 407.549005,14.91033 520.204845,-364.4747 v 0 C 608.78545,245.28497 560.74104,49.793937 560.74104,49.793937 398.38416,84.584706 267.50456,154.16624 153.19203,344.68716 37.222823,535.20802 88.580603,689.28142 88.580603,689.28142 400.04084,543.49155 400.04084,357.94075 400.04084,357.94075 267.50456,553.43177 131.65491,573.31221 131.65491,573.31221 199.57976,169.07657 506.06983,130.97244 506.06983,130.97244 c 4.9698,89.46198 -1.65681,167.32699 -16.56701,233.59516 0,4.9698 -1.65681,9.94022 -3.31362,13.25359 z"
       id="path1136"
       style="display:inline;fill:#3eab4c;stroke-width:16.567" />
  </g>
</svg>
