<?xml version="1.0" encoding="UTF-8" standalone="no"?>
<svg
   viewBox="0 0 799.99994 979.97602"
   fill="none"
   version="1.1"
   id="svg4"
   sodipodi:docname="favicon.svg"
   width="799.99994"
   height="979.97601"
   inkscape:version="1.2.2 (1:1.2.2+202305151915+b0a8486541)"
   xmlns:inkscape="http://www.inkscape.org/namespaces/inkscape"
   xmlns:sodipodi="http://sodipodi.sourceforge.net/DTD/sodipodi-0.dtd"
   xmlns="http://www.w3.org/2000/svg"
   xmlns:svg="http://www.w3.org/2000/svg">
  <defs
     id="defs8" />
  <sodipodi:namedview
     id="namedview6"
     pagecolor="#ffffff"
     bordercolor="#666666"
     borderopacity="1.0"
     inkscape:showpageshadow="2"
     inkscape:pageopacity="0.0"
     inkscape:pagecheckerboard="0"
     inkscape:deskcolor="#d1d1d1"
     showgrid="false"
     inkscape:zoom="0.89973662"
     inkscape:cx="429.57016"
     inkscape:cy="542.93667"
     inkscape:window-width="1920"
     inkscape:window-height="964"
     inkscape:window-x="0"
     inkscape:window-y="27"
     inkscape:window-maximized="1"
     inkscape:current-layer="svg4" />
  <path
     d="m 168.63441,319.77089 c 0.19969,-11.13279 -6.34021,-21.26714 -16.57439,-25.66036 -10.23419,-4.34328 -22.0659,-1.99691 -29.90379,5.8909 -4.09367,4.09369 -7.43851,7.43852 -10.38395,10.28412 -5.54144,5.49151 -9.58519,9.48534 -13.129714,13.47916 C 26.603888,402.94236 -4.5978953,498.69439 0.54415867,625.04913 7.5832811,803.57326 153.80732,947.55078 356.04479,975.15811 c 15.92539,2.14668 32.30009,3.24498 48.57495,3.24498 161.8499,0 317.80887,-104.83799 370.87688,-249.31474 C 837.40096,560.94819 773.39985,389.9125 608.45474,282.72814 l -13.3294,-8.63667 C 561.12788,252.22526 529.02749,231.5572 503.16745,204.74863 461.13241,161.26582 445.75616,119.73001 454.74228,74.150445 c 1.298,-6.589818 3.64436,-13.728785 6.58982,-22.764822 1.59754,-4.892439 3.29491,-10.184262 5.09212,-16.025236 3.19508,-10.633568 -0.24961,-22.115824 -8.83634,-29.1549465 -8.53681,-7.0391223 -20.46836,-8.187348 -30.1534,-2.9454483 C 222.50117,114.2385 211.31845,319.82081 231.5372,483.16839 190.35085,449.17093 167.58603,381.12607 168.63441,319.82081 Z"
     fill="#ff5d01"
     id="path2"
     style="stroke-width:49.9228" />
</svg>
